<svg width="24" height="24" viewBox="0 0 24 24" fill="none" xmlns="http://www.w3.org/2000/svg">
<path d="M15.4125 11.372L10.9125 8.37197C10.7986 8.29961 10.6679 8.2581 10.5331 8.25152C10.3983 8.24495 10.2641 8.27353 10.1437 8.33447C10.0238 8.39919 9.92384 8.49535 9.85447 8.61262C9.78509 8.72989 9.74898 8.86385 9.75 9.0001V15.0001C9.74898 15.1364 9.78509 15.2703 9.85447 15.3876C9.92384 15.5048 10.0238 15.601 10.1437 15.6657C10.2543 15.7211 10.3763 15.75 10.5 15.7501C10.6461 15.7485 10.789 15.7063 10.9125 15.6282L15.4125 12.6282C15.517 12.5601 15.6028 12.4669 15.6622 12.3573C15.7216 12.2476 15.7527 12.1248 15.7527 12.0001C15.7527 11.8754 15.7216 11.7526 15.6622 11.6429C15.6028 11.5333 15.517 11.4401 15.4125 11.372ZM11.25 13.6032V10.397L13.65 12.0001L11.25 13.6032ZM21.9656 6.54385C21.8795 6.19822 21.7108 5.87863 21.474 5.61248C21.2373 5.34634 20.9395 5.14157 20.6063 5.01572C17.4 3.77822 12.2812 3.7876 12 3.7876C11.7188 3.7876 6.6 3.77822 3.39375 5.01572C3.06051 5.14157 2.76275 5.34634 2.52599 5.61248C2.28923 5.87863 2.12054 6.19822 2.03438 6.54385C1.79063 7.47197 1.5 9.17822 1.5 12.0001C1.5 14.822 1.79063 16.5282 2.03438 17.4563C2.12054 17.802 2.28923 18.1216 2.52599 18.3877C2.76275 18.6539 3.06051 18.8586 3.39375 18.9845C6.46875 20.1751 11.2875 20.2126 11.9344 20.2126H12.0656C12.7125 20.2126 17.5312 20.1751 20.6063 18.9845C20.9395 18.8586 21.2373 18.6539 21.474 18.3877C21.7108 18.1216 21.8795 17.802 21.9656 17.4563C22.2094 16.5282 22.5 14.822 22.5 12.0001C22.5 9.17822 22.2094 7.47197 21.9656 6.54385ZM20.5125 17.0813C20.4848 17.1948 20.4304 17.2999 20.3537 17.388C20.277 17.4761 20.1804 17.5445 20.0719 17.5876C17.1 18.7313 12.0562 18.7126 12 18.7126H11.9906C11.9438 18.7126 6.9 18.7313 3.92813 17.5876C3.8196 17.5445 3.72296 17.4761 3.6463 17.388C3.56964 17.2999 3.51519 17.1948 3.4875 17.0813C3.2625 16.2282 3 14.6626 3 12.0001C3 9.3376 3.2625 7.77198 3.4875 6.91885C3.51519 6.80542 3.56964 6.70026 3.6463 6.61219C3.72296 6.52411 3.8196 6.45567 3.92813 6.4126C6.7875 5.31572 11.5875 5.2876 11.9813 5.2876H12C12.0562 5.2876 17.1 5.26885 20.0719 6.4126C20.1804 6.45567 20.277 6.52411 20.3537 6.61219C20.4304 6.70026 20.4848 6.80542 20.5125 6.91885C20.7375 7.77198 21 9.3376 21 12.0001C21 14.6626 20.7375 16.2282 20.5125 17.0813Z" fill="#FDC802"/>
</svg>
